<mxfile host="app.diagrams.net" modified="2022-12-02T09:16:46.855Z" agent="5.0 (Windows NT 10.0; Win64; x64) AppleWebKit/537.36 (KHTML, like Gecko) Chrome/107.0.0.0 Safari/537.36" version="20.6.0" etag="qwDaH-iVu4B1ZX0OBj4b" type="github">
  <diagram id="KA9uvc8aDikgOFMDr9Y1" name="Page-1">
    <mxGraphModel dx="1662" dy="772" grid="1" gridSize="10" guides="1" tooltips="1" connect="1" arrows="1" fold="1" page="1" pageScale="1" pageWidth="827" pageHeight="1169" math="0" shadow="0">
      <root>
        <mxCell id="0" />
        <mxCell id="1" parent="0" />
        <mxCell id="CX50pKxAuNAA75QaA4F4-18" value="&lt;b&gt;INFRA&lt;/b&gt;" style="rounded=0;whiteSpace=wrap;html=1;fillColor=#d5e8d4;strokeColor=#82b366;horizontal=0;verticalAlign=top;" vertex="1" parent="1">
          <mxGeometry x="20" y="360" width="220" height="110" as="geometry" />
        </mxCell>
        <mxCell id="CX50pKxAuNAA75QaA4F4-7" value="&lt;b&gt;BACK-END&lt;/b&gt;" style="rounded=0;whiteSpace=wrap;html=1;fillColor=#d5e8d4;strokeColor=#82b366;horizontal=0;verticalAlign=top;" vertex="1" parent="1">
          <mxGeometry x="20" y="232.5" width="220" height="110" as="geometry" />
        </mxCell>
        <mxCell id="CX50pKxAuNAA75QaA4F4-6" value="FRONT-END" style="rounded=0;whiteSpace=wrap;html=1;fillColor=#dae8fc;strokeColor=#6c8ebf;horizontal=0;align=center;labelPosition=center;verticalLabelPosition=middle;verticalAlign=top;fontStyle=1" vertex="1" parent="1">
          <mxGeometry x="20" y="100" width="220" height="110" as="geometry" />
        </mxCell>
        <mxCell id="CX50pKxAuNAA75QaA4F4-2" value="&lt;span style=&quot;font-size:10.0pt;font-family:&lt;br/&gt;&amp;quot;Arial&amp;quot;,sans-serif;mso-fareast-font-family:Arial;mso-ansi-language:EN-GB;&lt;br/&gt;mso-fareast-language:AR-SA;mso-bidi-language:AR-SA&quot; lang=&quot;EN-GB&quot;&gt;bvw00/bvw00-front&lt;/span&gt;" style="rounded=1;whiteSpace=wrap;html=1;fillColor=#f5f5f5;fontColor=#333333;strokeColor=#666666;" vertex="1" parent="1">
          <mxGeometry x="71" y="144" width="120" height="35" as="geometry" />
        </mxCell>
        <mxCell id="CX50pKxAuNAA75QaA4F4-1" value="" style="shape=image;verticalLabelPosition=bottom;labelBackgroundColor=default;verticalAlign=top;aspect=fixed;imageAspect=0;image=data:image/png,iVBORw0KGgoAAAANSUhEUgAAANoAAADnCAMAAABPJ7iaAAAA8FBMVEX///+vKy3fLjGzs7Py8vKztLSwsLDhLC/DRUevKSuytravJyny9fWvJCbfKi319fXw3d3hTU/Ozs61rq62TE7gJyq5ubnV1dXgODvw5OTCwsLo6OjIyMivISPi4uLb29veICSwVlevOjyxe3yvNDbeHCCvHB6yoaHjX2GxgYG4oKCwaWq4VlewurrJeXqwW1yxb3CylJXDhofpoqPgQUSyjY3uy8zWTlCvQELTWVvBkZGxdHTsu7zNbG3hUlTaOTzni4zkbW/qq6zPY2TkcnS/aGnEU1bOtrfx09TGfn++lpfrsrPmf4DSYWLokpPdBw+IS3cfAAAVSUlEQVR4nN2d+VvbOBPHSXwE23FSEnKQiyRAUgIBQkm5y+623ZfS6///b145hz2yRodtcXTnp3322aV8OtLMfGckeWPjxazdqHfa5Zf7817Kyo2WYRu2Xa+0X/tX0Wrmbsu2jaWRf6j8V3xX7rXqa64VnVGvmK/9a2W2cq9i2zTYynf1xh+9MtudOsa19l2r8Yf6jgREPtfad63dP47ObNQNCdeKzmrt/kFBBQZEFTqj82fQmb2WkQRsuTCNVu+t0/UqVkKsEM+q9F77t+daud0R+styDdcS++5tFmLtijAguu50fPJ1rzqV0L25QqzdkPjLmnzb6vc3u93tw7ElobPfTiG2rHwFXK5x/vOhVsoXNnM5r7t/elh1JXStt1CIkYAojIdkHd78LPVLhXx+gZbLOV63O5iPZXTWKxdivU5dyOVas/utUi2/tCXags6/Op3bkpX5eoUYr/JdG/nFn062DshCzMfRFnQj72hedS1JVHmFQowERPEGM8bfLpuAK4YW0Pne1emsKvHdCxdiksrXIhvs/LrWp7iI1f71cjSc54/2FXzXeSHfmbKAaFVvfj6U4lyB1/637+Ti5vi54VHgOyFc/fkLMUnlS/xl3NxfLANi3Pp/NU59Bo3AOf7o6mxmSHxndJ6RrtxrWeKKozr7+pCvYVzEZ83HSnWEoAXmEd+dTaqyhPBMhZik8iWV1OTkssbhCnbal2LFRd229p2/fTtxhb57hkJMofKdnF+WasgGC+3gsVixZjl2t0HfecPbscR3hs6OmDwgBpVUn+uvpdM+FcsVu37sCdAWpUpusDeeSnzX0uI7syHcX8EGu/lcq6GBg0K7C9DcCW+3ATq/e7U3tmX7rmJm8l15VxjoCZc7uScbTIJFrPRpxyRohnUldttqZXb3B9IiOkMhZvbqkkrKeDp5OBBusGin/VNcoLlzT7Tb4MocKQigeho6SeVLpEo1qKRk63DttOaOufRadVvFbUvf+UMigPQWYuV2RRIQXVJJ9ZlKim/9X8UlmuEedlXRFr7zFQSQcjfTlFW+VvXp+kJtHYZOe1yjWVWk2hLSEd/Nq8K2ClmYnV0plzzQ2zf3TbyS4lvtByFbohnuXgK3Len8bu5UUkSTqCAsxCStgCDQT+63eJWUwA4eIzSrOkzkthWdN5QJoMB3eL9P1vO1VpVUkoW4dtoX0wzRDPcsqdsWcMR3w7O5uIjGCjFZ5RtIy/O4tFS20l0RoFlVJ7nbVr5zhkeyItqow0IsqHwlG+z8cz5BQIyRbZnQa4Z1xC2SVXx3dTuTFtGLnhGpfKWV1NPPZkmh4uDZwfcijTYRFsky84jvpALIqDc2JNLSnT7dbwmkipLTdmg0Y3qc2m1r33nbt2Ox7+obLRFYdXLykCpwQOt/KNILkritm8VtCzrP94d7It91Njocp5ENVv12nSLQx61Q2ImjGQZfkibBIwLolldE25WNBopGKvrzy35Wfy2d9teKzCyHf5Y7UyuSpXCkiL46nGClir27scugkQ1m3XxOVknxrZB/DNEir7lD5SJZZhwBZPc22jE0sg6f7vP97AtxZbUfpsl4zXCfpJJU3RZThMNYEW23N0x6HRpEWuYzBHrG+h+LCFoSbaNkpIgezGE30zI3zDpYibNvW3o2WGi1T0XMa0Tb6Agk0AIBROTd+g+olzfKEZp9n7aS4lv/Dkcz6pnSNofO96vrRdki5UiU2NyfOlfiwmrvd0wcLbm2UWHLrVekHaBFic29144WtERwNGus1ABKZt7VdI3WIWggIn/TjVbomyYHjWgb3buNoA1CrzUIGojI57rRFi0RDpplaIz/K/OPQrSgodADyaavl2zZEuGgGW56bcOz7l6IFqgaEyQbzWj9H0X+giRFcrIGkArabB0g7UCNlqM/b6oZ7fejCM0QzG3SmeNNQrSFxgZoTV3l1cJqf1NkDJo11rzbnP3xGs1aoEU5e3qpNWOX7sRohptRksbNuxrDjA1z9vSnTrTae9OUoM3SNoA4aIN1MbJIa1TO/qoz+lPpGkUzDMm4LaH5p+FWqyzQYGLTGEdKD6bMa8RtWnebf0alNTqxafRa2BIRoFmG1mrLp9PaBhCj7pM+stLFOzmaZm3TnYd6bYlmhuLUnTxoi/5RS0SEZlV1uq0bprX6cioViVFrvKUtRPYZp2FoerXNKFRr9WVrvBxGf6uqLbGBlogQLem4TWSOt5Y0q7RGidFrXWiFO8ZpKJrh3mpzmzOk1Bqd2Ka6xGjtPUtmltnGoFa3AbVWWaEBMXqiCe034jQcTaO2AWqtsULb1Z6zqZZIhFbBWtjWWFe11T0M0dbT0bZ2Mcqm68CKJ1W0Pa/Lbd1ZLGNTYnR8oINscUqEJbuL/lopt2Ubt4Xm5GghGlNsrhY0JF0H9mNzv46gEW2jJW0DtWaEA99ombhNDWSFJpuuidMe85ujG9xtWuI/UGv1EA0kNh3lCJauCdqvg01/gO02qzrQ4TbvOKbWYopNR87uP6LrsVnazI2eMLe5cx2BxDtl0hql2DTkbDRdm8XvtcImWTToyXAt4zZGrcUS27fs0b+PpWvT/DtAc7wZ7jYNuw00IaNDP0CM3mT2Gp6uix/7i9sZ/inmNS3jNkatLXJ29NeXXYwyLZEl2o/aAs3pTlC3adA2o6hTF6FFii27GC3kUbJ3zcLyTo13jO+27HP7kR1TawvFBsToRUa0A7zG+tBfXRdychOs2squbRwv/DuL0hpIbJnFaGkLS9fmTpAvlzeh/CN0t41THCWkDATfFoaWObHhNVbxLijgVrcOHbRIzqxtgFrrALRIsU0/ZwuRB6jTiu9rIVrO/zpF0CzufRtFA2mtAdC05ez4BGNF9tiM7opSZaxGtwG1Bs8h97Tl7I8o2l+LH7q+ddg9w4vkbJ0Ef86otZgYvcmCxkwwVkGkWYJoTg7fbZmKZKjW4NH4aHxoTbIotgO0xip+WP7M8K5o9xZ3W5bd5gzHrBANDOzmDF5bn8SN2/sajeZdoW6zskhSVK0FBtRvBjHKaYncraqA6IZvVMlSK1Lxvg2OdmzTY8MwsUU9hPRilJOui19qcTQnZ6ANoAxFMlBrHQotSmxW+pzNSdc7690L7mXjDSB3nn63IU1IfYmtUNtB0X6tdy9A87bRToKdfm4D1Bp9vQaK0bRofbwlsvNpvQzgbXogrqDb9lKnbfAD6dsnQLGlPc1UaOLp+nsYciGah/btMozbIrVmtHloNymdhrdEVuUjg8ZrAKXWNtFszaIvswEx+pQy+h/gTnv8HfkVokWtNdptKastZ99AhCid2KxJOjFa+4S1RNblI4vm+GgDyEp5lNC7Cn8EnbEhWjVdYqt9x512gb83Ao9lUmjjdG7zwiMjsYxNdVkv03itdNFGnfYB1G2x90ZGeCch3Zk0/yx2GgbL2elOM+EtEbOYBz8shsbp241TVVsctUYntlRD39IDXmPdQR0RfyXGQ92WbtzmzZH+6ir6Z8vZnLGT+QX+rBhazh+gu23ip7hLylFri+ifTYyW0AlG8TEP920czfHxTkIKbcNVaxtQjLopxCgvXf9F/S3F0UBJS6HNkqdtoAAtBg1E/+Req6Hp2mxTTmPRHAfbbWnGbaAnHU9rVJc1cTlS+xvdaMV/6L8kBo24DdttKeY2XLVGJbYUORtviZg77+mAxKI5OXS3TROnbdCEjKc1mNjspGK0hE4wFnMnCVrORxtAiZ6AWBhIaw0GLUpsVtLE1kfHTrDm56Lhbks+bhtFsZ9956GX+jQTcqhzQfYufrQeQeP07RJrm0jSGOyrP+nFKH1xJkL7FY+0GJqzj7dbk6Vt2LRlnx6JLlYmFaO/0ZbIcu4kRcv5eAMomducIT+tkcQWHdNNJkZjF2dCp31nMj+K5g1RSZps3OYdR5GCIQOKLdnQt4BPMIIgUohZadNDbIS7LVGRDMaRbMamcnYSnc1L1x+brP27jdkAbwAleUsAdOrYjE2dZU2Ssznpmuw11jpV1BCyhC93RBsWydiwyzpNkLNLWxwy4ri4lSuGhRmOJn7ejjLHmXOFaGC9VENfvCWCG3goQMESjNuc/ShjY4/ZtdPk7PAtEf1olvp9G6jWsBe1gBhVP4HMaYnoQDMMZbd5V4YgrUHFpn4CmTPB0IOmPm7ztiO1JkazxqoLklNjafKaq1okR2qNaUIuLUpsY8VyhDPB0IamOm4Dag1La0CxKYvR2pckZInRlOc2XXFaA4lN+aAWPsHQhqY8bgNqjRWigYFrIWqJjVNj6UNTfd6uG8V+/NG6xGI0SbpOhaaobYDmQzM2pdiUGsi8UyIa0dTGbfAYCv6OYjlCO1cp/ROl63RoauM2D9weQMnAkR+lE8iliyTpOi2ayjUpeHiUgwbEqEJiS5auU6IpSVLQ8cMzNt1Alq7IQgntY+lGsyZyt3mHkoxNjQ/lOruGt0R0oylIUqjW8LRGjQ/lOZszwWAFKLBKTIKKXniM3CaL/3C2xvv2EhCj0qHv6nlV1t4JjNNACA1FncqKZHlaoxSbtDfOaYkU/7nY4tvnY54NAjvFu62yuY0zjFpivKedwYsBMjFausCX4877WolrtU0f69aFxjncakskqUytBZZAjOIXZ9jhDGVoi5X6HTluE2sbqNa4jzqH0d+diBdk6ROerot/i/4/GRrn3JZs3CZVa4FF40OJGOVNMHbyoqQhRQNLi3KbeNzWlac1WowKE9sBx2kfhOtYigbCOLXbxJIUqDVciAamKkY5EwxmwpsUDRxHot0mut0Gjmig/dWlRYnNFiW2QhO/51r8KD6WIUdzPPyUvOjpbnCPhZvWqC6rKLHxWiLFL+LgI0fjDEmJJOVXWyCuov3VpZlqOvs3Z+zETHiTo4FjjZTbBOM2oNZsLhl4McA95y9IztEeWRBRQuMMSUXaxj8K17AILfpRN3y0Pq8lIg4iamjeMcdt3HEbUGvY2HBtQIxyf8ESfhJXGkTU0HIj9AawQNtEao0rRAMDR364vyCvJSILIopo/il2tslwueM2cBKSn9ao8SEvJBTy+GosPj7IhJASmrOPHwB1T/G0DY6wCdIaJUZ5vXFeSyR+1iwtGueWFHfcBo6McIVoYFFi4w19Sw94ujZN+ZxADc3xMTKiyHFt4+yHC1iQsWGXlXcCmZuupUFEFS3XRd9b4Y3bwHVsS/SNIXBJg9NAPuA4TR5ElNE48Z8zbgNqjStEA4veeOOcQOZNMIrvLuTDHUU0x0Prf04nIVJrwtgvF6Px51VDNFklkgAN3IundxuqbZTUWmBhYsMbyKVPuNNUgog6GjwCSLkNe0yyq6LWAovEKPqEBaclQoLIb/Y/To/mo3fS0bmN44wlY8O17QIxyqJxT4kED6VoRAMXkWm3seM2eGRE/G37UIxa2AlkbrpWCSIJ0HL4e1vYNSmo1sRfrRR2WQtNntM+KN16UEeLPjkQd1t8t3nRnSPmWgZtZZEY7fMOHBSVnJYALdfF23astgEXPERqLTDB4/6FPGfspBZEEqHhF8AQSRq9B4yeX4UWlSPMs1PcCYZaEEmExnkBiH2V0FdTa4G1osQW/337vLGTXM4kRsv5X/HdFpekvmpao7qssfqCe6hTMYgkQ+O8ScK83NFVTWuUYou5gvNeG0FrKh56TYLGuZISH7c5fhRFZJ/f7PGGvsEEAzcFOZMCjTO2iWkbVbUWGFeM9n/tBIPNx8A+ruxuYcLpTGq03OipXq+7rFlQksIBiAwtGh/GTiAXLrYuFvbwsDravvr3JeUz2MnQnH1wYP54MDgldnR0dHYL0Xyg1mQfuwViNJazC6vZZnQlQRUpHRrRbTHzlwb3GmikC4VoYFIxmsESoqkYeIpDltZgYtP53YJnQvPAbE0sRAOLuqyTC81sutEcf3hoK2ds2GW1Jj9TfwD2BdAcf3Q0jr4BKE1r1FlW151cFzTCaUXznNMx/LihRIgGRn3W0bVvHvR5TiOaN9qe0ZdxBGPDtZnUETHLdc+3dG05bWhOd3vuxuowiRBdGPMtmfFXTZ+s1ITm+LnDKlNgyoRoYPH/x7Cm1fu8jlWpBY2AnSFf7rVFY8O1ddhPMbvG5FK9nnpWNM87nbA33myjIt9qxNotho0Ey5vLzB+IzY7mjQazKfK93o4SWGC9OgJXPX8oZYPLiub5V3ObVXF2S1bzU7ZrsR8Ccqsn2eJJNjSnO9yzsU0mT2i0lSsY3PhzlniSCc3fP6sim8xqKAT9uJlYPHGfrtOn8PRojtc9miAes9WiBwKHfNzdNZ4u02651GieN0DComGoRw/W2ng8yfdTwaVE80ZXcwOJHvVE0YO1XRYuiCcPaeJJKjSne7UXL6qMNNGDtXKD3XLWdPL5IPmWS4Hm+P4RW1SRTZYmeiBwFYONJ9PJz8QpPDmalzvFiiqjogUsMBOrT4ybrYQfDk+K5vnbM/YGh50wRcsML77OtxJ1hhI267rHc9ZjSWsPFeuxKZzonUT1SaKev7+PKBcSPeR9ghSGFV/T8X1JGS7BVDSoPbCiSjaySGtoPLFm16p6R/0EQu50jCoXbdGDNbOCFF/Tm0u1TKB4/MzrDtCiKkvtoWJtrPiyz7dUMoESmuddzbDaQ3/0YA0Rc0F90tRy/Mzp7h9qUS4pDS++Pkvh5BdP/P3bF40erKHFl1zvSNAcv3s0RpXLM0YPBA4Llu6TuH8iRvOcAQZmdF4ULDBSn7Bw1fOmQO+I0LzRECmqsiuX1HDsqnRP+PMdPprjX82tV4werCHFV9A/4VXNPDSyyW6fUbmkNCxYTiec+gRHc/zcEa5cXpErMBOLJ/YTqnfwlwZ9rO/x/LWHGhwTT5bzHSaeIGhe93j2MsolnaFiDqlP2HeP/eEcVS6vFj1Y6yHBkuidmJiLP5/e3d/DNpn1LJIsvSHxxLUm11SzmUYj0QNN0S9be6hYuYHXJ6D4AmiONzpFNtnbiB6sYWMCUp9chM3mCM3zBjOsHfxWogdrbXZMQCTBt/WWC7+/1h0eou3gNxQ9WEOLr+o9/LQcCYv4MOmNRQ/W0Mnc7Ppg9fFNrnJpvMlNFrMGEizdYL4TfHk5dpBlBaY4in59K2PNoUDvbI6250j0eDO1h4qZHeb3J5rl2/F8ijV03nT0YA2ZzJF4goAZu28uRUsN63yxYK8qydIbEixjYG+z9lAxrDkEyDp/UPRgrdzhwb3x2kPFMDH3R9QeKsbC2dbbUy4pjY4nb1W5pDRQfNmt/xLYRtQc+g9ED9ZI8WX/R6IHa+3Wi9Ye/wc34NvMc9L2xQAAAABJRU5ErkJggg==;" vertex="1" parent="1">
          <mxGeometry x="62" y="124" width="24.54" height="26" as="geometry" />
        </mxCell>
        <mxCell id="CX50pKxAuNAA75QaA4F4-3" value="&lt;span style=&quot;font-size:10.0pt;font-family:&lt;br/&gt;&amp;quot;Arial&amp;quot;,sans-serif;mso-fareast-font-family:Arial;mso-ansi-language:EN-GB;&lt;br/&gt;mso-fareast-language:AR-SA;mso-bidi-language:AR-SA&quot; lang=&quot;EN-GB&quot;&gt;bvw00/bvw-back&lt;/span&gt;" style="rounded=1;whiteSpace=wrap;html=1;fillColor=#f5f5f5;fontColor=#333333;strokeColor=#666666;" vertex="1" parent="1">
          <mxGeometry x="71" y="274" width="120" height="35" as="geometry" />
        </mxCell>
        <mxCell id="CX50pKxAuNAA75QaA4F4-4" value="" style="shape=image;verticalLabelPosition=bottom;labelBackgroundColor=default;verticalAlign=top;aspect=fixed;imageAspect=0;image=data:image/jpeg,/9j/4AAQSkZJRgABAQAAAQABAAD/2wCEAAoHCBUWFRgVFRYYGBgZGBwYGhoaHBgfGRwaGRgZHBoaGhgcIS4lHB4rHxkYJjgmKy8xNTU1GiQ7QDszPy40NTEBDAwMEA8QHxISHjErISs1NTQ0NDQ0NDQ0NDUxNDQ0NjQ0NDc0NzE0NDQ0NjQ0NDQ0NDQ0NDQ0NDQ0NDE0NDQ0NP/AABEIAOEA4QMBIgACEQEDEQH/xAAcAAEAAgIDAQAAAAAAAAAAAAAABQYEBwECAwj/xABHEAACAQMABgYGBwUGBQUAAAABAgADBBEFBhIhMWEHIkFRcaETMkKBkbEzUmJyksHRFBWCosIjNFNjsvAWJENUcxdEo9Lx/8QAGQEBAAMBAQAAAAAAAAAAAAAAAAEDBAIF/8QAKxEAAgIBAwQBAgYDAAAAAAAAAAECEQMEEjETIUFRMhRhBSJxgZGhUmLw/9oADAMBAAIRAxEAPwDc0REAREQBERAEREAROpIEjr7TtrR+luKNP79RAfcCcmASUSm3nSZoyn/7jbP2EqN57OPOQV70zWa/R0az+OynzJk7W/As2fE06Omo7X906v39/wAsSStemW0Y9ehWTw2W+REnZL0RaNoxKNa9KejH41mT79Nx5qCJN2et9hU9S7oHkXVT8GIMhpoknonjSuEYAqysDwKkEH3ie0gCIiAIiIAiIgCIiAIiIAiIgCIiAIiIBA6X1tsbYla9zTVhxXJZh4ooJHwlU0j0w2KZFJK1U9hChVPvY7X8spusdhTq6fNKsu0jsoIBI4puyR4S6Joq1oMRSt6S7O7JUMfiZox4d/Bmz6mOH5EFU6VL6sdm1sTv4Eh3PkAJjveax3B/wFP/AI0HwYlvKW79pbGAcDuUAD4CebOTxJM0x0nswy/Ev8UUx9Sb6rn9q0gBniu3Uf8Alyqz2t+jazXG3cVXPbsKqg/EE+ctcS1aaKKJfiGV8ERbanaNTf6B3P22JHwmdVtbalSc07aimEc52QeCnvmTMPTJxb1ju3Un48PUaddGCXBWtVllJJvya61Qx6J8qp6w4gHs5yRakjLtGhTI3nduOP8AYkdqp9E/3vyElaZ/sfcZZiitiJ1Mmszp+V5Zi1dEWpUE02XOPVY9vIzCq6vWx4VKinhhlyJLt6ieIne7O9R3sPLMl44PwjmOpyxdbn5KppXRrWuy1Osd5ONnaVhgZJyDPpnQ4IoUckk+jTJJySdgZJPaZ86635PowO3a+QH5z6RtFwiDuVR8AJ5mqgoTpHs6TJKeJSlye8SA1v1mp2FD0zqXywVVUgFieZ7hvlTs+mG0Y4qUa6cwEYDxwwPlKI45SVpGltI2XEitD6w210M29ZKneAcMPFThh8JK5nDTXJJzERAOJxPG6ukpqXqOqKOLMQAPeZrnT3S3QQlLWm1duG2erTzy9pvgBzM6jCUuEQ2lybNnG1NG1NOabvASm1TQj2QEXH3m3mR+rl/cWmk6K3FV3LOqPl3ZSKu4et3MR2dhl300trbZzvV0fQcTiJno7O0REAREQDReux2NPU2G7fRPxGJeL8YqN4ykdKQ2dL0GPDZon4VMS9aSHXJ7wDPS03j9DyvxFflRiRE5xNp5BxE6PVVfWZR4kD5zEraZt19asg/iEi0SoSfCM6R+sBxa1z/kv/pMwaut9kv/AFdr7qsfkJDab11t6lGpSQOS6FAcADeMZOTnynMpqjRh0+TentfJD6s7qL+J+Qkkfof4ZAaG0rTp02VtrJJ4DdvGJIrpGiybIrYGMYZfzkwklFItz4ZvI3Tq/RIP6tMcx8pzceug5k+U8TXQ7Oy6kg5wTjO7E9QrMysQMAHgwPGd2ZdrXd/ciNYF2q1uh7SB+JwJ9JU+A8B8p8436bV7ar/mUvOqMz6QE8vWfM93RKsMTTfTbfFq1vbj2UNQjm52F+TTJXV+1NNEegjbKgFlyrEgAE7Q4nMhekdi2mUVuA9Ao8M5+ZMt016aC6aOc82pdil3+pVSk3prGqxZesEJ2agxv6rj1vDdLLqZ0ktti1vxstnYWqRjrcAtRez73x75ngyG1n1fW6QugC3CjKtwDgew3PuMZsCku5GPP3pm4AZW9cNbaNhT2n61Rs+jpg9Zj3n6qjtPwyZQNSekQW9tVo3WS1BCaWfWfB2fRHPtAkY5Z7pA6Hsamk7h7u6J9GG38cE9lNOQHGYYad7qlwv7NUppKzuy3+mH26r7FANuzkU1+4nttjtPlLXorQNrbDqJtv2u+Cfd2KOQmezjZCIAqKMKo3ACdJ6UMSS7/wAGKeVvg9XuGPbjw3TWmvB2LhHHEDOeaNkfObGmt9fXzUQDedlt3icD5TqaSiRibcjd3/EKfW8omD+6qvf5D9Inn7YG62XGIiYiwREQDSPTe2zeWzjiKWfw1CRPF9ZtJXGDSstkYAyVc555YqJndO1PFW0bvSqPwtTP9Ut9Su3oqTKxAZF4bvZE34b2qjDq5RjG5Rsof7v03U47FIHmi48ifOdjqZfP9NfKO8bbn5YluLE8TmcTV05PlnnfWJfGKRVV6O6R+lvaj8lT82JmVR1C0cvE3D+Lqo/lUSwRHRXtnD1uV8diPo6t6OT1bRW5uzt8yZ4ayWtutnXCW9FMU2IKouQe8HG485LyI1r/ALnX+5/UJLxRQx6jJKcU35KJoK0otRZqiBsMd+TnGBu3GZT6Lsz7LrnuY48xPDQ392b7x/KSN39Go5rLIpbeDvLkmsjqTXf2YFbVuj2VWXPDIB8xPD/h2oPo6yn3kSarqC6AjO48fATrRUCo2BgADcJO2N8HC1OVLm/1X3KxWp3FKunWzVUqyEENgg5XjuO8cJc6PSRpal9JTp1AOO3TYH4owA+Erdwc3q8tnyXMnWuam0wVhhQNx39mZTLDCbe42S1c4KNJd1ZAaw6zNdXSXTUwjKEBVWJB2GJyNoDGc8OUttvrpatxLoT9ZT8xkSOeupVWdEbaOMbI754fu+2c7JpFW47iw3fHE7jDYqizh6yMvnF/t3LfZaVoVTinURz3A7/hM2a21QoAX2F9VA+M8cAbI+c2TO4u0WzST7FC1t0MXvKYpjBuMZ7gy+s34d8vNtbpTRKSDCIMDn3seZO+GoqXVyMsqsqnuD42vfgY95npIjCnYlO0kIiCZYcHSo+ATKFo63N9pSmgGUDjJ/y6Zyx953e+SGuGntgehpnrtxx7I/Uy79FmqhtqJr1lxWqjcDxROwHmeJ9wmTU5VGNGrBB3bL/sCJ2ieRZtOYiebsACScAbyT2DvgHeJUdMdIej7fINYVGHs0+vv8Ru85T9JdMXZQt+QNRv6VzmWRxTlwjlySPbp2p/2dq3c9RfxKp/pkxY1Nuztm7TTTzSa909pHSmk1VXt22EbbUJTZRkrj1nO/cZ3ttX9MMip6RkRQAqGrsgADduTM24ouEUn4MmpgsqpMvuDGye6UUajaQb1rgZ/wDJUOZz/wAA3vZcL+J5q6iMH0H+39F5xOJRhqfpNd6V+3srOJ0/d2maeMF2/jRx/NvjqIh6B+JIvkh9bj/ydbwH+tZWP39pOl9JQYjvakw+JXcJh6W1wetRei1IKWxvDHdhgd6kcpO9MiGjyRmn2o89Ff3U/e/MSTvfUUc1+RkHo3SdJaQpvtcSd3jmSS3lB8f2vA5Abl4idJqjnNjkpt06tvgzKn0q/dacW/rufATkkMwZHUkDGMg/Izvb0ipYtjLHO6WLkytUu/qv7IKlvvW5E+Qktn6U88eUidF9a7c/e+ckajbK1AQcsxI3HGPGcLizVn+Sj9kd8bqS8wfzntSP9ox7gB+c8iQGpA4GFz5CdqLb6jcz5CSuTPX/AH7mHqCM3Ln7DeO9hNiTU2hdGXDipcW4YmgFZtk9cBs7wO0DBJHdLnq1rStfCVMJU7OxX8PtcpxCa4PYyY3yWaInhdXKopZiAAM7+4dp5S0oPZnAGTKfrLrSEzTo9Z+GRvA/U8pHaR01XvKgt7VXba3DZHWbv+4vObJ1J6OKVrs1rjFWvxAIyiH7I7WH1jMubURgvuacWC+7Ibo71BbaW8vVJbO1TptxzxDuD29yzbM5gTypzc3bNqSSETmJwSebsACScAbyeXfNFazaeuNK3RtrZiLdScAEhWVdxqPj1l7hzE2B0r6b/Z7JkU4eufRjHEKR1z+Hd75UOj7R/oLY1sdesd3JF4eeTNmmx3+b+CnLPaj20ZqBa0gDWY1W5nZT3KJYLZLelupUkXmqgH8XEzxZid5OZxPQWJeTFLI2ZbaQbuE6G8bvEx4nahFeDjdL2exun+tOv7Q/1jPOJO1ehbPQXDfWM7rdsO2eERtj6G5mUt+w7p1q1Kb+vSR/vKp+YmPE5eOPolTkY1fQFg+dq3VSe1cg+Uja+oVk3qM6fxZ+cm4kdJeDpZZFSrdGvbTuRy2l8e1TMN9R79N6VEbkHYeREvInZXYcCZHTa4ZPUvlGs6erukqLFhQfJ4ldhs7+R74avfp61vV99J/0mzhcN9YzsLlvrGFGa4ZEunLvJJmqamk7j2qB96MOPiJ1bSVfZKigV2sjcj9u7dum2DdP9Yzq1dj7Rk7Z+znbhXETWuqulr+z2/2egxNTZB26TncucYO4DiZ2q6v3tzVatURKLOdpjuXf3hVJ3/CbFLE8STOJEcUU93kted1SMWyRkpqtR9tlGC+MZ7t0o+s9xUuLhLWmCSzKMD2nY7s8gN8vd4eofdKvqaVXTa7ftbezn6zJ1fzjNJxg2hhW6fc2nqdqnRsaWygDVGA9JUPrMe4HsUdglkgTmeI227Z6AiIkAREQDRvTHdGtfUrZTnYRRj7dVsfHAHxlremEC019VFCD+EYlF0q/pdPsTwW4H/wqD80l5ZsnPfvnr6eNRX6GHUS70cRETWZhERAEREAREQBETE0jpClQXbqsFXnxPIAbyZDdd2Sk26RlxKzR1lrVt9tY16q9jEYB5jAPznL60tSIF3a1qAPtEEqPHcPLMq68Lqyzozq6LLE8rW5SoodGDKeBB3T1lqdlbVCIiSQIiIAiIgGLfeqPGUXWCube8oXCnBXZb8Lb/Iy83/AeMpWvFLKU37mK+5lJ/pleVXEtxOpH0Hb1QyK44MoYe8ZnrK7qFdGpo+2Y8fRqp8V6p+UsU8KSptHpHMREgCIiAfO+jjtaZrt3Vrg/zOv5y/zXWq5zpOtncdqucc9vhNiz29P8Tz8/yEREvKBERAEREAREQDxvLhaaPUY4VFLHwA7OcwNRdVjfN+8L0bSEn0FE+rsg+sw7R3d+MyP1/qEWbAe06qfDOfyEu+tV21loZmodVloU6akeztlELDnhiRzxPO1uRqoo2aaCqxpzpG0dZN6Eszsu4pRUELyJJC55ZzJfQ2mrbSNEstN2QjetWmVBB7trqsOYJnyzScbYZ942gW7yM5Pxn1DR1psUtFuFrU1pKgwARkYG5AvHa7Md8841mvNaNCHRNwtehn9jrts1E4im54Y5cSDyI7pPKwIBG8HeJPa/0lraLuCRu9D6Vc8QVAdffkCU3VmqWtaBPEovlu/Keno8jknFmPUxSqRKxETeZBERAEREAxL/AID3yqa4j/l/41x5iWm+O8Sq65nFv4uv9RnE/iyzH8kbL6JXzoyjnsaoPhVeXSUzolTGjKPNqh+NVpc54U/kz0lwcxETkkREQD5x1fXY0tWXhipXX4O36TYs1frTcNa6WuXQAMtd3weBFQbRB8Q5l40HrDRuV6h2XxvQ+sPD6w8J62lnHbXkxaiDvcTERE2GUREQBERAERMLSWlaNBdqqwXuHtHwXjIbS5JSb4MTWqwNa1qIoywG2o7ym/HvGRLLq1cUtK6K9A53mmKNQDirqBsvjxVWHhIbRekEr0xUTOySRvGDuMh62j7i0rm70ewDH6SifVccT1f/AMI7CJj1WF5EpRNODJt/LIoun9Sr21qFGou653OisyMOw5A3eBk1qL0e3FzWR61NqVBWDMWBVm2TnYVTv39+OE2BZ9LdADZu7etQccRs7S55cD5TzvelcOCljbVKrncGYYReZxv9xx4zzunO6o2blVmf0s6XFK0FpT31bkimqjiEBG0cd3Bffykdo219FSSn9RFX4DfInReiKr1mvL1/SXDeqPZQdyjhu4DHDxlgnp6XC4Rt8sw58ik6QiImsziIiAIicEwCPu2yx5bpUdeamKSL3vn8Kn9ZaHbJJlK1yY1K9KivHAHvdgBK8sqgy7Erkjd/R5blNHWqniaYb8WW/OWWY2jrcU6SIBjZVV+AAmTPCk7bZ6JzERIAiIgGgulaiKGlqdcqCrClUIPBijYYEd2APjJPWTozDH09g+znrCmSQN+8bD+z75J9OeidqhSuQN9NijH7L8PMSd1E0kLixovnLKmw33k6vyAl8H2OJdjVqay3tm4pXdNjjdlxsvjvD8GHPzk7Z67Wr+szIftDd8RNoXVqlRSlRFdTxV1DD4GVe/6OtH1N4pGmc/8ATYgfA7ppjnlEoljhLwRlHTls29a9M/xAfOev70oYz6an+Nf1mLX6Jbc+pWqLv4EKZ4/+kVH/ALmp+FJb9U/Rx0I+z3r6xWqetXTwByfKRF5r1brkIrufAKPi0nLboos19epVf3hfkJP2GpVhSIK26Mw9p+uf5t3lIepk+DpYYI1fT03pK9JW1pMqndtIp3eNVtw92DJ7Q/Rc7t6S9rHJ4ohLMfvO35TaKKAAAAAOAAAA8AJ2lMpylyWJKPCKjUsqdE+ipKERAAFGe7JJJ3k8zOsydJfSv4j5CY09DF8EYZ/JnDoDxAPiMwqgcAB4TmJ3RyIiJIEREAREQBPC8qYXx3T3kbc1No8hwglHiZWtULf9s0whO9EZqh7tmnw921s/GSGsd/6GgzA9Zuonfk9vuGTLD0IaC2KNS8YdaqdhOSIesf4m/wBAmLWTqNGvTx8m1JzETyjWIiIAiIgEPrRooXVpWt9wLoQpPY43ofxATT/RDpU0q9Sxq5UsSVU9lRMh08SBw+yZveaO6WdBPa3SaQoZCu4ZiPZqrgg+DAfOWY3To5krRtmJE6s6bS8oJXXGSMOv1WHrKZLS8qEREAREQBERAK5pdcVDzAMwpK6dp71b3fnIqelhdwRiyKpMRES04EREAREQBETxr1go590A6XdbA2RxPHwmBDNneZWtbtM+jX0KHruMEjiqns8TOJzUFbO4QcnSMC7VtIXtO2o712tgEcMDe7nkADv5T6K0dZJRpJRQYSmoVRyAxKN0T6nm0o/tFZcV6q8DxSnxC8idxPuHZNhzxs2RzlZ6UYqKo5iIlJ0IiIAiIgCRmndE07qg9vVGUcY5g8Qw7iDgyTiAfOuiby40LevRrgtTbc+PVZPZqJzHd4ibrtbpKiK6MGRgCrDgQZi676o09IUNk4Wqu+nUxvU/VbvU9omoNXtYLnRNc210jejz1k7V3+vTPAjl2y+MrOJRN3xMXR2kaddFqUnDowyCPke4zKlhWIiIAiIgGJpGhtIQOI3jxErUuEgdLWWyS6+qePI9/hNOnyJPayjNG+6I2IibjMIiIAidHqBeJmFWuidw3DzgmjIuLoDcN5kexzvgntO4c5VdNa0gH0dv12O7aAyMk4AQe0ZxPJGCtncMbk+xn6w6dW3XYXDVCNw7F+036SU6MtRnquL68UkZ2qSNxZuIqMO4dgntqF0aMzLdaQBJyGSkTkk8Q1X/AOvx7pt5FwMAYA3ATys+dzdLg3Y8agjvOYiZS0REQBERAEREAREQBK9rZqrb39PYrLhh6lRcbankTxHeDLDEA+drzR2ktC1SykvRJ9YAmk4+0vst/vJl71Z6Rba4wlT+xqH2WPVY/Zbt8DgzZFagrqVZQyncVIBBHMGa11n6IreqS9q3oHO/YI2qZPIcV927lLY5PZy42XVHBGQQRynaaSe20zowkbLsg35ANSmR4jevlJbRXSyDgV6RB4Fk6y+ODhh8TLU0ytxZteJUrLX+zqYxVQHuYlT8GEmaWnaTjKsreDKfzk0QSk4YZ3GYX7yXsUn4Tg6R7k85NMGLfaJ9pPw/ofykS6FTggg85MvpF/sr/vnIu90hSI/tatPHNlmjHmlHtLuUSxJ8GI9dRxMxql4fZGPnIvSGn7BOFfaPcgL+Y/WVm51yLNs0KRYncNrJJ8EX9Zf14VycLBL0XBmzvJ98hdJayUKORtbbD2V/NuAmLYap6XvsFwaVM9tTqLg9yDrGXzVvomtKGHuSblxjqkYpA/c4t7zjlM+TWJfEvhp/8jXVho/SOlG2aSbFEnexytMDm3Fz4TbOp3R7bWOH+mr/AOIwAC8kTfsjnvPOW+jRVVCqoVQMAAAADkBPWYJ5ZTfdmlRUVSOYiJWSIiIAiIgCIiAIiIAiIgCIiAIiIBwRK9pjUuwud9a2Qt9Zco34kIJ98sU4i6Bq++6GLRiTSr1qfI7DgfEA+cg6nQvXU5p3a45qwPkZuyJ0pyIo0W3RRpIZ2blD3ddxn9I/9LdKf9yvD/Efj3TekSepIUjR9Pojv29e6QfxVGmba9Cn+Ld/gT82M3HEjfIUjXmj+iLR6YL+lrEdjvsr8ECnzlv0ZoG1txihb06fNVAY+LcT7zJWcTltskTmIgCIiAIiIAiIgCIiAIiIAiIgCIiAIiIAiIgCIiAJxOYgHAicxAE4nMQBERAEREAREQBERAEREAREQBERAEREA//Z;" vertex="1" parent="1">
          <mxGeometry x="62" y="254" width="26" height="26" as="geometry" />
        </mxCell>
        <mxCell id="CX50pKxAuNAA75QaA4F4-5" value="" style="endArrow=classic;html=1;rounded=0;exitX=0.5;exitY=1;exitDx=0;exitDy=0;" edge="1" parent="1" source="CX50pKxAuNAA75QaA4F4-2" target="CX50pKxAuNAA75QaA4F4-3">
          <mxGeometry width="50" height="50" relative="1" as="geometry">
            <mxPoint x="281" y="420" as="sourcePoint" />
            <mxPoint x="331" y="370" as="targetPoint" />
          </mxGeometry>
        </mxCell>
        <mxCell id="CX50pKxAuNAA75QaA4F4-14" value="" style="shape=image;verticalLabelPosition=bottom;labelBackgroundColor=default;verticalAlign=top;aspect=fixed;imageAspect=0;image=data:image/jpeg,/9j/4AAQSkZJRgABAQAAAQABAAD/2wCEAAkGBxETERQTERMXFhYWExYWERYWFhERFhARFhYXFxYSFhYZHioiGRsnHBcWIzMjJystMDAwGCE2OzYvOiovMC0BCwsLDw4PHBERHDAoIicvLzEvLy8vLy8vLzAvLy8vLy8vLy8vLy8vLy8vLy8vLy8vLy8vLy8vLy8vLy8vLy8vL//AABEIAOEA4QMBIgACEQEDEQH/xAAcAAACAwEBAQEAAAAAAAAAAAAABQMEBgcCAQj/xABKEAABAwICBgQJBwkIAwEAAAABAAIDBBEFMQYSIUFRcTJhgZEHEyJCQ6GxwdEUIzNSc7LCFTRTYnKCkqKzJDVEY3SD4fAlVPEW/8QAGgEBAAMBAQEAAAAAAAAAAAAAAAECAwQFBv/EADcRAAIBAgMEBwUHBQAAAAAAAAABAgMRBBIhEzFRcUGBkaHB0fAUIjJhsQUkM1Jy4fEVNEKisv/aAAwDAQACEQMRAD8A7ghCEAIQhACEIQAhCEAIQvJcBmQgPSFWkrom9KVg5uaPeonYvTj0rOwg+xAXkJf+Wqf9IOwOPuXoYvAfP/lf8EBeQqjcRiOTvU74KQVkf1vU74ICdChFQz63tC9iVv1h3oD2hfA4cV9QAhCEAIQhACEIQAhCEAIQhACEIQAhC8SSBouUB7UUk7Rme5UZawnqHBQ64QFqTEPqtvz2KhPXznIgcgpdYL4bIBRUyTnOR3YbJVUQOOZJ5klat0TSs5VUdY6R942ujv8AN+Km8V5P612Z9qlK5WTsKpodXP4KsKxgNgb/ALLXP9gV54hjNp6WSPg8g1DOes0k+pSRugkcGRStLiCQ25BsOAU5Sue/SvXOxWirTujeeWoPvOCvQVrt8MnZ4p3qa4lRvo3NzHPqHFWKW4zuq3Rez4luLF4R0tdn7cUzB3ltvWrMWMwE2jLpDwjY99ubgNUdpU9K/wD7dSPqgN/vUke9x7v3IDjTBMyB8cjXyBzm38SRqtzJ1XkjuU0lbGNms2/C4uleIxwSuDpI2uIFmk3uGndcKrDDFH9FExvGzR7Udgs19R0+r4HuKj/KTxk496WlzivOo5QTqNWY9IMyDzVuHSMeeztbt9RSAQFevk5QamupsVhk6L7Hg7yT61dusMKdMKGsljOwkjeD7uCEmqQoKSpEjbjtHAqdACEIQAhCEAIQhACU49Pq6g463qt8U2WZ0zcQYSOL/wACAg+Uo+UqnB5Y27CvkkDx18kBd+Vo+WJYXH/6vO1LAaGuXw16oticVLHROKAtflFZ/SV0mtDUwMu+ncSWgWL4jscOtaODDDvTKnwsDcpTs7lZxzKxlYMUjrYHsicAXMc23RfG4i2XUsvgzJ2zOpp5pI5W7Y7Fr2PaBlZw966DiehNHK7xmq6J/wBeNzmO7svUl1PotT08hmD5ZZLWD5HhxaOAsAFopRS0MJQnKSb6Pna65b7is1c0ZtJUF3+2wK1T4rEc3E87KnjMN1mKhrm5LI6EjoUU0Tt6sNazdZc0hxB7d6Z0+OOG9CTdhjV9DAstT44VfixcFAPAwIsEvjxFp3qdtWDkgLOqEaoXxlz1c15nna0bNp9QQDHCJAJCzfqF1uq4HvTpZDRSUuqZCTc+KP3mrXoAQhCAEIQgBCEIACzGmvoeb/wLThZjTX0PN/4EAqpFLO4jI2UdGvdUgIo6t28A8xtParkMkZzZbklgVqnQDmngjPHtTCGmbuS2lTWnQFhkICkIXwZKKVAeZyUprWuO5W50tqXFAJa6jefNPckNXhUh9GVoqp54pPVPPEoBFNgs31PWFF+R5RmWjm9oVqocb5pbOgLbKTV6U0Y5ElWY5oG5zF3U1vxSIr1FmgNTT4hF5rHH9o+4JpTV7j0Q1vLafWsvRp5RoB5E8nMk816qMlHTqSpyQEuh35w/7I/fatksbod+cP8Asj99q2SAEIQgBCEIAQhCAAsxpr6Hm/8AAtOsvpqNkJ3Xf3nVsgFlEvdUvFGvdSgKQVumVQK3TIBvSJrTpVSJrToC2MlFKpAo5UBSnSypTOdLKlAJ6pJ6pOKtJ6tAKalLp0xqUunQFYr1FmvJXqLNANaNPKNI6NPKNAOqdSVOSjp1JUZICXQ784f9kfvtWyWO0OHz8h/yyO3WbsWxQAhCEAIQhACEIQAqGMxRuid43Y0bb7wd1lfWZ01lIbENxL78xq29qAz8dc2N1n7BudutuvwVuWRrhdpDhxFistibzY2WXlqZo3XjcW8kB0cK3Trm9LpbOz6Rof7U8oNOoPSMc3ltQHQ6RNadY3DtL6J1vng39oELSUOL07x5E8Z/eAQDkZKKVfWTsI2OaeTmlfJEBSnSypTOoSypQCerSerTmqCT1YQCipS6dMalLah43kDmgK5XuLNVn1UYzcO9eW4jEPOvyBKAf0ae0axkeONb0WOPqXt2ks1rMaG9l0B0eJ4AuTYcTsCrVOKxm7Y/LPVkOZXOvlM8p+ce53UclpMKjcALoDpui7IfE3iNyfpCc9bhyTpY/Q158a9vGMm3WHNF/WtggBCEIAQhCAEIQgBZfTb0PN/4FqAsxpr6Hm/8CAzT8KEg8k2KSV+AyNvdt+sbVq6RSzvIyKA5pPhPV3ghU5MIdwXSnEO6TWu7F6bhsDvNLeW1AcsfhDuC+NwqQZXHeusjR1h6Lu8KQaMHcAUByqKmqG5SPHJzlcimrB6aT+IrpDtG3DzV4dgP6qA5+a+sHppO8qGbE6welf3reTYJ+oUtqcFP1T3IDBVOL1n6VyWTYnVHORy3NTgbvqHuSybR+TdG7uQGRNXMek9x7V7YXHO/rWhdo3PuiPdZRQ4RI57mWAc3pBxDdh3qyV7tmc5uNklqxXFDfcr0NLdWKjDJItriw9TXXspqSaG/zjnN42YCPb7lOR9GpXbxXx6c/PcfIcPB3JhT4YFfojTna0PfzIb6k9o5GjosA/mVDVO6uL6DBHOtZvfsTtmGCMbTt4BW4Xk5lfajJCSfRD84f9kfvtWxWN0P/OH/AGR++1bJACEIQAhCEAIQhAAWY019Dzf+BacLMaa+h5v/AAIBXRr3VKOkUlTkgKYVqnVQK3TIBvSprTpVSJrToC0FHKFKMlHIgKM6WVJKaVCV1KAVVTzxSermd9Y+tNatJ6tALKmV3E95STEGHpjpDPrCc1KWzhSnZ3KzjmjYqa1wCN4v2r1TO1sxv2qvAbXZwyVqHNWlo2ikG5JO/Pn095KKJzTrwGzh5u5yfYFiYkOo4asg6TOPWFRo1PiOGl4EsPkys2jdrj6vNSpKWj7SsoOHvQ615cPoa+nUlTklOjOKioj1snjZI3g7jZNqnJUaadmbRkpK6JdDvzh/2R++1bJY3Q784f8AZH77VslBIIQhACEIQAhCEALMaajZCet/4Vp0vxuCN8LhKbAbQ7e1wyIQGTpApKnJLYcTbG7Vl8kX2P8ANdwJ4FMJpA4XaQRxG1AVQrVOFTCu05QDakTWnSqkTWnQFsZKKRSjJRSoClUJZUpnOllSgE9Wk9UnFWk9UgFNSl06Y1KXToGLqkeUCNhv6lahG1V5OmBz9ynjeL245K8tyMoWTk/n4IbUaeUaR0ae0QVDUWT/ANlro5Bsjn8mQbg7Zf3HsWvqDsSbSHDxPTvGzWb5cZOzym9fWFUwrSHxkDG6pdK0ajuAtsDiesBaS1VzCHuVHDjqvH1zNXocPn3n/LP3mrYpHorDEIdaN2s530jjsOtwtuATxZm4IQhACEIQAhCEALNaaSkNiAOwlxPXbVt7VpVl9NvQ83/gQGExOQkGyzD62eI3jeW9Qy7lvJMK8YPJO3gkmIYE9t9Zp5jagFNLphOz6Rof15J5QacU/pGub61np8KH/dipvwl24IDqmHaUUbrWmaOexaShxGB48mVh/eC4A/CXcF8Zh0oyLhyJCA/SbHgjYQe0FeZAvzzC2pb0ZZByc5XYq6uGU8n8RQHa6hLKlctOL1w9O/vUE2NVw9M9AdBqkoqwsFU45W/pXJZPjFWc5HIDdVIPBLagjeVjnV856T3d5X1j3HMk9pQD6eRoeDcfBV5pxr6wOWXWqUMXV/yr0VNfctYzSXzOapRcpW6L35aedhlHjjG5NJKkOlEvo2Ac9qoxUG3LZ7Ezp8MG9Zu19DeDbXvbyn8vqJT849xHDd3K3RxzQPMkbNdjh5TRs2p5QYK51tVp9iex4YGDytvUpi7EThmtxW4l0AxyKSV0YOq4sJLH+SS4Oblx3rfgrmUWH0k0jxUvZFaO8UmuI3RvDgAWuJG3aU1wHSkRzNpaioin1tkE8bmuLreZK0HyXde9S433FFNxdptc93avXUblC+BfVQ2BCEIAUVRM1jS97g1rRdxOwADMlSrLeEskYXUW4RjsM0YKmKu0is5ZYuXBNkMvhHw5rtXxrjt2uDHao7SjSerjmjgkieHsdrlrmm4I8hcewzC3TRTvZnCwPI4x62q63IG/Ynmh+JuLfk7jsaXPj6i62sB1bB3redJJXRx0cTKUlGS3m4pFJUy6oJvYDO9rW4m6joln/CDiOpEIWnypM+pgz78ljFXdjrqTUIOTPk2lFGXEPGtt6Wobd4TSjo6aZgfGTqnIjaD1dS5k6jIgEp85+q3kGkk963Hg6P8AZ33/AEp7PJC1nSUY3Ry0MROc8suFx+NHGHouB7F7GjDtzQVfpcUp9YNE0ete2rrNuTwtfatBB/3gsDsTuY92jjh5i8OwL9X1Lebkpkx2k19T5TFr62rq+Nj1tb6urdBdIx8+D2G1valVRh7OpbLSqUhjQDsLtpB3AdSUUFExzNZ3FefWxVXb7ClFXtdt38zsp0Key2tRu17aGQqMGvk1L5dHn7mesfFb2opWjJL5jbJTfHcKfbLzItheM/8AXyMJJo9Nuid3L1Ho7P8Ao7cyAtdDI4v2k8rlGJ1RjaC0XJNt5tsVMRjKsasaNOKzNLV7vWhalhqcoOrNtRXDfzM9Bo5Nv1R2phFgBbtdIP3RrKI4zLxHcpaTFZC8B1jcgbBbNWc8fFN2g7c/EhLCN2Tl3FuCnhabHXdzGoE3pXxttqsA57VTqm3F+tSxZDs96wqfaU/Z41YJXbs73a3N6argjWGCjtnTk3a1++w+heTv9y91A2KGmUtTkvXPPRgXUsUFWZaqJ08Bz2uPi7kbT1X2dq6ro7Bh8kYlpI47cWtGs0jcb7QUq0WaDPI1wBaYiHA7QRrNzCuP0WbDJ4+hPinn6SO58VO0eaR5pzsRxWjnmVmc6pbN3irrvXJmpQoaaQuYC5paSNrTmDvCmWZ0AhCEALK+E3+66n/a/rRrUkrKeEs/+MqeUX9aNWh8SMq34UuT+jMR4Ig0zVIcLh0FiOILgCs1i1IaOtc0ZMfdh4xk7PUU+8FjrTT/AGQ++F40+i13eNA2tsHcdU7+w+1dLlaq1xOFQvh1Jb02+/8Ag1+HzBzGuGRGt1AWuua45Vuqqs6u92pH+yNg95Vyj0hLKF8N/nL6jNvo35u7LFTaCYbrOfO4bGbGdbiNp7PeqRjs7tl6lTbuEF06s9aX04jp4WDJrrDr2Ham3g4+hf8Aan2BUNPPo2ftH2FX/ByfmH/an7oUb6XWWStiurwMlgo/t8P+pb/UXfadcBw9wjrozJ5IbUAuvs1QH3uu8UtZERcSM/ib8VOI3rkMDulzGIX58qf7zd/rX/1Su+Cri/SM/ib8VwOc/wDk3HjWvI6wZTYhVodPInG/4czsmPUPjW2Bs4HZwWdbFPFcatx3j1LW1cjW9Igc9iV1E7PrDvC82rhITqbRScZcU/XgetTxE4xyZU48GvKwgllkObSOxUpRdNqp44jvSyQ7e1ceL2uGgpxqt62s7PwOjD7OtLJKmkuKuUabpntUGPdFvP3FWID84VHjUTiwaovY+5UqSXt9OUtNF3p+JeEfuk4ri/qjOlTUfTb+0FeoKSN+x7XA8dxUjsMLJGlm1txe9ti75YykpOnLR2e/d27jkWGqZVNaq/X2bxtU5dq9RZdy8VLtnavceS8G33GP63/yeqv7t/p8R3S5KWoyVelkbbMKad4tmF9TmT1TR4OVreu4+aNzBlQ4newj+Zq2Uct1ziOYtlaW8fUn7sUkGRAAuNtiS4WJ236x3rOrWjTjmfcXhTlN2RrQ669hLsMqC9hLhZwdqu5gA+whMGlaRkpK6Kyi4uzPqEIUkHxwSbSbChVU8lOXFgfqeUBrEar2vyuPq27U6Kjc1E7akNJqzMJo9oYKNz3iUya7dWxYG223ve5VLSHDHOBI3ggjiOC6BJCqVTRAjJWcm3dkRhGKypaHF6XA4nSaskxi6nMuCOAffnmt/RUMcMLY4trRfbsJcTmSrWI6OMeD5Kz82js8W2GR7erNvcVMqkpb2Up0YU3eKPmOYR8pa1uvq6pvfV1uKvaMYSKZhYHl2s/WvbV3Ae5KxUVkfTjbIOIu09yuUukbG/SRyM/d1h3hRmdsvQW2cc+e2o0xPRGmqTrPaWvOb47NLuYIIKXM8FEB/wARIOHkMKzQwkyvcWV0bdZ5IDnTNIBN7ZJjT6EVT+jXxHlJMtk7aKZyzipO7pd6HDvBLABd1S8AZksjFhzvsXPaKnDa1kbDrBtQGMOzy2iSzTs6gtoPBvXu2GsYQcxrTOuOSf6M+D6KleJZHmaRvQu3VZGeIF9p61O0sneVzN4dykssMvX/ACOsaw8TAAutYk5XSKXAwPP/AJf+VqpwldUvMq4LD1ZZpxu+b8GexDE1YRyxlZdXkZ2aiA85UpticVSTVSrD7Pw0HeMF3v6tkyxdeSs5Pu8BXM6xuEflZwzaD2kL5UJbOVrWw1Kt+JFMpSrVKXwOww/L3+WP4j8FPRYsHmzhq8Nt1nJHtGZHeF5jq2A9IHlc+xc0vszDOLSjb53l4to2WNrJpt36l5GvqYiSCDs4KzSsvsWZpsRceiyR/YR7U0gkq3dCINHFxLj3BbUMNkpbKo1JcrdvnvM6tbNU2kLp8/XZuH7KAHzrdiXYhVxR+Sx3jH/VaL25m+xfI8DqJfppXEcB5A7rp7hmjLGZNWf9Nwn5F2vzL+21/wA308hfhFO99nObq960bcLcdrXAXG0EFwBO8bRt2BXqSgDdyvxQrWGEowjkjGyvfe9+7iZyxFWUszd368SPD6bxbbXJJN3E5ucbXPqV9oXhjFIF0RioqyMm23dn1CEKSARZCEB8IXh0YUiEBA6EKJ9K07lcQgFcmGMObVTmwKM7gtAvlggMhPopE7NgKpSaFx7hbkS32LeaoRqhAc+Oi0jehLKOUj/evhwOrGVTMP3g72hdB1BwR4sIDnrsKrv/AGZO5p9yhdhFcf8AEP7m/BdH8UOAXzxLeAQHM36PVhzqH9zfgojohUHOeT+X4LqPiW8AvoiHAIDlf/4Rx6Ush/et7ApY/B5GelrHm9xXUPFhGoOCA55B4P6ceib23KZU+iELco2jsC2WqEaoQGdh0fjHmhXo8LYMmppqhfUBSbSN4KVsA4KwhARtjC9hq+oQBZCEIAQhCAEIQgBCEIAQhCAEIQgBCEIAC+oQgBCEIAQhCAEIQgPiEIQAhCEAIQhACEIQAhCEAIQhAf/Z;" vertex="1" parent="1">
          <mxGeometry x="51" y="402" width="48" height="48" as="geometry" />
        </mxCell>
        <mxCell id="CX50pKxAuNAA75QaA4F4-15" value="" style="shape=image;verticalLabelPosition=bottom;labelBackgroundColor=default;verticalAlign=top;aspect=fixed;imageAspect=0;image=data:image/png,iVBORw0KGgoAAAANSUhEUgAAAOEAAADhCAMAAAAJbSJIAAAA/1BMVEX///+kHhHYLCBjZGZZWlyhHRCtIRV6DABdXmBgYWOfAAD6+vpmZ2nOzs9WV1nw8fHb3Ny+vr/m5ub26+rv397csK2lpqfRKh7NKR3Gx8jYKRy+JRm1IxbWFgDXJBbcLSG7JBjXHQtwcXOiFQCGh4j65eSzs7ScnZ59foCdnp+Oj5Dp6enf3+D43NrWGgX21NLrnZncSD/icGrgYFnaOS/usK3mg37njIfxvbq8ZmDnysjhaGLeUUjqm5f0yMbqnJjtqaaNEwncRTvOko7CdnHHgn21U0zZrKjfWlJzCQDmiIOoAADkenSvPjXjwb6/Mye3WFGwRDyqLSGqMijKioYEg3l3AAAVHklEQVR4nO1dCVPbyrL2IohkeTcxXpCNF2xjswcICcvhQBJILjn35Ob9/9/yZmTLmq1n2kiOIZWuSqoipNF80z3dX/e0SCLxR/7IQlI5vD0/uTw5P7qprHoqy5D926uWd9BpEel4rau/dlY9oXhl//rUO2ikQml0vOPb30aTO0dXXoeFNwPpeScX7qonF13ci3etAxneVFre6fv9Vc8wmhw+eV4LgBdY69XZq1XkzvWdHl5grQfnh6ue6zPEvbg8AK1TlFfodvbPU5z6VJ4mxflWr3V5s+pZo6Vye8ojapwevj8VDLbR6dzxF1pe4/o1BEn35qnjiQo7uCbXT7z5depfrnfOOqJSD7zLlx4/IOfi0V22c0t+2KA47v6iMeJKYbk0frxgRV48Kvcbkc636R2H5x3v7mgK4dBT3kr0+3ixQhCw7L/vaGJDJ1BMZR7hT8C7W5737aURgcotqL4ZwifxkR21CoP7vcezFxQ/bp5SRuZyJ873vehnJEWmnl4GEagcpaj/0MBTs8+Wke/QB1dOBGgM0DMXqgplKK9cXMphRQLpeU83K4wf+ybiSQLDyQWshZ1bZVolLtHdqojAxeOBYXoNc9qw/75lVuRB592vjx/73w4wecPp8eX59e3ZzX6l4kJgL96ZCXrL6/xSRVbO3pmta7r8jVarc+AR6ZxeXT6dMWPs7B+eHX17urw6xQxE3fG7X8XoDs8NsQEE2/Fme/Lm6vi0QWF3Wq2GtFTtdls5AnGtvyCRlPIGHoQBZetkOspVpwHfu9lM/t1MKUHSuLrU+OHSooSipNTqdKhCSFRsEcJFS4bQ9D0/cOyDdKadqm2trye/fn2TrKkVucz4sXN0rLBOEhBaj+dHF4c7RCrkz/7F7fvLFFCeaV3Rkb5BdGazuU4l+ebNm69f/95WK5LGj2XUr24uFSUzmufdHipW1N0hzkgVBrxbYumbahVT9c0RUpBv1mrqLdnoHMRcv9pR5g0N7/RasyncsysZY6NVSZypjHSmPhYhBfn3FqBIWm2Ny+24F+rY0Grdmpbx4k6yR5JkSJlvO1SfgNBXJOB2iLU+xmGslWuxwhKMf4UIwe6JpC/v9kCjPgmhr8j1TQjjmXkOBrnuALGhcYzbB5fS8nAX2qnm1rooAkKqyL+b6g3pRWQ6lWOQNHaQm6Cizaxq2xI8FUIf5JZqAC/iXnwHZqmNU+wYcLEiVVPBUyIksWNrUzXEwUYkgJpCQywINxUWqkIIho126j/REG6IPoFdPGSFuqIvVkheRkL41Y8Yak9TS2YiIvwPPLWGVHhRi+xppGlKikwi1Edley0ywsy60vh9aR0j3FjlUmMGgbRFRc4R0t0HwUs1k2vJ6AiTSbWX9iF2jkwDnJ0aCmoBRl6RSbP6pvhiQbiWrAGUgpDuA13iXblNGQsULMgmi5BEQIiv+fjWfHyxICQY15vQi2gF/vpQsSEr+0eXSuatxRhEx6SfPEH42pvbyRm+mBBSPULUkNqql7o6ub64Odyn+dP+4c3F0dPjqXeg9zAk4z/wFMFoGj806mvXtkJ8sSGkGLdhn+PXJ2hJojNPhWHtTW/uNI6fbm8OVbdtNuE3ETWvM/DiREgwrm3VwDejpOHXpE6vLt+TdNkfX0MG1NJM8vhiRTjbkPDm12Mjqj29/HZ0s8NsWmWeCAq3/ZaEcGqsC2Ccma93enJ9dlgRc5GKsXDFwGvX1hX44kdIjXUdZaw+tsbp4/nZDRRQ3i1go7J5Lg2hr0iNLwgA3tHilJbX3aJtVGmey0RIMW5p2MYUoek0Xn9AOhfKdmB8S0OY1NKAKUTTafwjzkab6xp4RHrR6sMahH740Btry2v9Bb7/GqFCtffkVfg2EkA9QoTXaRx4wEE1XPWew2vrzdNXYFSAicQHPcSp19FuyJa69fDOGCgIeTHgS2a+R9uEOIhTrqMD2fA6ktd5b1IhGB0YfL2H6PiIPPSMGDFe55I7TLnRA6xtGdWXTP68j6uqX/mc6Zkx0vChm3SLba90tTaKME+6OY7P4jsTrnzqmZd0LWnyOl7raVaDPwcT/zbGPP1kjhp/bO2a7tkV5r1Gr9MgiqTn1KCNtjcx5hnuiZZ3F8fZzM60WcIUeacvN2VYDS91vQ8RbpR58n6tQQ/rIsr7VnBugZmAOcNqqLuE2qgllPPw6OcWd+x8UD5OXw4AZNMY3JOz7SdK1HOLK94n4FYanWEFg2JWDhqzFY2XHirKuUhjNXGdUHDmCWzwzfVoCN+qCtYIPhxMSp9hTfHhzFO9XO1aMhkRIXRugTJWI9dJpTBrpTH5rbXICKFzCwzxn66+xutsbmPIC0yWpuqPijAJ14I3kTRAPcU2xn3CC9Seqz86Ql29G+V1qBcUBmjj8IFG3mbMOzpCIA4FmkB6Ha52tYnYxpTnAo6KJ3dxINRuJ3yI3K7VNonUttWFTwEfVJeVomc8CLU7HhexKci1+d+GOzU+WFrPuBDOSIXpvDIG0b5H8Zr4ECb1pWBk+DDi0xwbqE0lVoQz9gTOAOV1tPg0iQnkt2NG6BuRhqjguA4ADyYvOncWO8Kk1pJMNXgNviTYdaFP/ZeBUJ/LtzHRThrwGea5VITTOcHpES58MGM9xzx96f2MVlPUINTaFZbr+MPAFeVfcG7xj/HcIqrX0ZIXI+uNfm7hfjGfW2j4nNHr6Fg9YoEyX6KfW1R+mM8tdKVgbYYF40MZea8X+eDJl3tUTR9OPkBdgA/R7BqTGv83rqr+xiczRK27UO4nsoOhIg6uMtVMNbyTuKr6Z6hips7rCHwO5n44Hxy8quU9xlHVv3lstTEVFUOzTXOLJk6+bEGRFMfe2dwjhq8Rdq5mH1tELwW3N2vNZrNG0KnVJ7WsqVeRD8KRq/o34cck6OqartkGrp+i6loKK4lY1ef7suItBXPAkeap2OmNaLxUPunDGqupFMzCQx6rKVP/zajMW6rqL1IKxp5boMxTyYHbzaVU9ZHpEa4fFR0dVPh81xS9qq/URDynpaiNDflnWlSmEjk/XAN2FOpMU2+smFN7ap76h+Op6ivXkHodDNdR8xdUVwLEzdmHY6nqA8aGLcrIZoY89gXMk384vqo+wCMX6ENpzyaIclV+56NyXYWHY6vqg8kD1IAtTji51aTnFrXmNq7nCTAbaUVjrESBYbyNKwUHxDvCuYXqRTFX9UHPGKUULC4E4JqAxHgJVX0oM1isggjhA+s+0IaPv15KC6VqY8V5HS0+wDx11GA5VX0wecBxHQAeZJ5681hWVR9MHvClYGFIcI8btvjyqvqxep3nmKcvve/LrOpDycOiB1B+s8bi5ulL5mMkgImPhnownDzgvQ6cZZltodeLCDCR+Ndc1QeOZ3CZO2jsmHboXubfGH6hEuZrBKi+Zm4LAvIWVHDtZb7/Ex0fkYck4msEDTHXWBrokBGuqpf5Ec+pBZHKfQaDEWy3Ac8t1E0lqG792PQXYPyM+KpEkykrNqSi120qmLy4l/kS2cGI4j78xBxBQRmWH9WYiYMaxzinTO/DUn49rfvPFxRGkOvUttZnydP6Vk1ZGUSV8DLJ++X9Qrr9D4gNqeM6mzUqEG1HkIRe5n8Py/3NiZX7/+EUueCH+7jYmVnC9lPIW4yxwhmWWnDm+TmGjw1RsvEZZ6yGrxJD88Qc2Wd+LnH7yeI+II3VfDyD3H4/Yo1+KPn4ARciDcczmOiX6X1azS8v38B5Hd2Xl7WtF2eevOBCZBJK/hBn2tQ8V/w/JWx86j2z3QaBL5NZDnlZUCoPP5DGGmoP00xMgvsKzVOQjxiuM63qU/HbToz4vrx9Uf+RR+UeY6xJbFGfmOevIC8LCvE6iPCBEBKF/u/FmCcvG5+TGEWa8P1YMreOJJWH79Ewvkzz5AXldSD1ZT6/UPPkpXKPKQco8L1o8+TF/effRRXZy3z49dw6ktAMC6/ITObTr0r9YhQX63V6S628LFcwXudVbT+FVO71IZKQs1e2/WRx38LGuozC7koEMNZe5t+XkBvFIxufJWJO3Ofvob9AKg8/w/BByEvy/hWGB5Ps3/8g0Ij0vt//XupjZePjx48a5eV2++PBRLy6Vx2Pq8VlTutXyWSUtx3bsgfcVXdo2Y5j58eFFU0rPnHTdtqXfJW93LemV+3RqiYWm/RnAAnEvfBqKR9ctarws69C9qwAStoeh5ezTnj5NbM7IqUQYdqeX53Y4VXrlXubKotlrq0iezW3yvlFFwCh9Qfh6xE1wr3f3koLDnO1vMr5RRc1wsR4ftnprnB2cQiAsDyP+PlXbqQQwkQu7xuqkx/Az74OgRAmyn3HsuzRKw/3CQ1C4m6KRSmleoWiQfibyB+Er1/+IHz98gdhVCnncnvSxUK5mKsXoRrXpFgfVKuDQalYXnRC/sC5XHHCPKhBuKeaHDcVckc9VyzD5bi9kW1ZVrbEXHJzw26aXrXSQxmAWx93KdOgYllOdlxC1/rCgemDo0HAVUCEua40OW7ug1HWmQ5np7u7avJaD6jfMLhSHOctO0hc7KwAkfupL46dH9UxmswJj5IH7WpZh3AgTY6RwiCdF4azduUkazLPo2fsNjfKM68jEPvcJEd5Dl0wuJUdmDDWu6pHbWtcBBEWw9xC0mKhatuK4fJjkcMOw9sc8s/yyBKnYYXbYNKXfhpi7GoTnKI8cIjRBRCO5o84WXG9sgp804mMOR7rdsP35ouJqmIaYaG9ZAGjBkPDahwqVR+8ITtis/kwx2dx76HHsy021ypkmUHqw7zqgVm52R2rfsrPFCg1TLqW/kl2uog6jdvXj2d1Q1NlETpdpYpmOnRHOgXORnCUiVwxrVGgPD1zrW1smooT7lsWITCPabW5oIYvjmwrNmPRXgQgAmHVYBFU5mUPDqFSpsc+Lgpg2t/MIkCTcQtirHnvYQZ0ui4SoeP44bwvAXRowJeVM7s/lLKzkAYRCLuoAYOl1iF06NnkyHe9u4JdkFDd3x0MquNsXkTp8Ed9Lm4+jJisNIew0XQYAkCEjpXv9oPz5RxvF7Y1LAbTKA+yQoThj/pkp+DMWBsUH0067PPPUdKWzpIxhaU2IHSsfi4MbgXOBzl2lTfEosAD1GecwYttwkYnBbdQLI3FtUEhnAiMcVTyQ5RbrHa54ay6DqHd5fwFyzjIz2Sqn+P8EGOnblZYcHvIhMzCQEVMDFbKGSlXZ3TrbNi1JhqE1i5HTsocwL6KuLgcVwj9aZVHIK1OQcExDDocMBfZ82J/GqU5V7UCrq5CKLJcdivxPJyRAbN8cyUWeICWIkOoSxANCFkiLfcvFMa+qZJdFoyiQGgJACfMHBRjBsLuOHumKl6FlrI0nxMN1WClDEJxptPx+lnb6YY/kRFau8Ij7DQdTfl5EEK0p2O43CaE2inqgvc36HA3vGiLU51hmrCzlBDOucBcWG6uPSBhz8Jcae6w+gUSZtAhuw/18wEQ2qKnZF5jOMQrhI5z6mu4yGXDpQ6eFBh0yPlSkpSaEm8RobwqjJHahiUrzW/1My6X8+uaZ3nmakBY4OOhla3mtGUiAaFCS0xymjeslzsfzKEul6dXummM1PmhmrUJnIYwrOxIg1JAKGcGBRb+pKyVyTisOiSEyKUqJc2lxFmegbUpeCnJApzuUG2wPEIxggrr6OQNwqi7zC+2vpWCi5vG/HCkJLSE7uZHiromj1DRWiX6cqTQCbEORMypBFHXaYDsqQxOybFsqdTG5/gKhz5QMEcMwrpQINECZMM4IseX6DwjtjXizYVDGNBxVnafh5C4zgnzTwcie4p1RPS1lXSG5VgjtiDG61CxVYfP1GGJ6yxUbHBO2CljOvfq2tIP17rBIlT6O2NZSy3E05TRrpTf7ai+tvJIW6zJhyvK10sV736eDumOXkiHi3df1h2w/k5vn7/QiPBZ+9BOk53A7UNDn/az+ksHXbFywUIMWLkRIedLZwdZRvFPDrgtLh47CDJWRwtT92VxtytVwgIJCqZGhKwPcMYljORmyQsbD21t1w9XkLPmoRPRI+zuDcZp8bhvOtkuEuEeh1A3TUk4TgOdcfrCxfCFEPoyyVVHjoRyBseIsMA9tdCJNpc6awMiVwtgEC7SIyzW2gIlGhHyhEp5ByR8VUxzGO/ya7+wDuf380dS0wM5M0JOEwt9ulLgEGosfMBP7Hk69KXOVnanKakZYZHbIwspkUsC4B7YglDFeLYOBTxTt2FGmOAzyEU+seLpI5heCNmQEWGhVK2C7R9MdJtaHAIhHxEXsVOXYwvOSO2nRNZkstJS2rJtKw1URZhVRSMscAwQLAnTXtecEPX4eqmthDgU8wRrPoi65j2bjqXe2EyIQiMUiJs9UhtIrpu3rHyW2y4TXj12VzrnL4ykREiPMGxut7OKrVmSwjcGIX/aQ0ZW3OfuBr09XI4tsFrHFrpuSmmZ9jIIFVbKFvXzY3HF6twRSxWLUPDmNMUUV680P3zis3meL9B3dMMPYQslZYuGXoe8PfFFiyJvENNHUAilc2XaAjWP4G5umGbYBF/rkQoOjm13h4N6vbQ7stXpT/h1jAqhMJ5tZXdzEzfhEuYmHUcm8AjLUrpJW9JG493dYT+b5/uIhNKv3ABAQdK+PyjxYRAqrFROfG3Lr/NJvHTWB4RDyJ66cDNVzFNAWMjq6g0GhAodqkuJKskXFkEotSpoJijs0b3FumlMOtTV2fhhqsESM9d0lGyMhCjXDZG9E+E0tDpMIFqzuHmgESIhOmk51c0t2BM192Hqkxk5gqrm4QTrhEeYULb1CWJ3Vbl8caGmIQahOrfY1fU5ziQMywsgJHzBNHIe6L+cmHrGuLOnuZVCvYk5BU/gh2NDFttfqu8YJ0FD30Rpp+FSxVC3Oo7dZxGavyF1d1X9weG9HDsMybHUhquQAbx6tjXUZVZwj7CTHxWZhWZT5ZBGi5PbG4PdvLZd5SypMHcDeUx2W6gqu7UcyxqavqED+rzzfvd02HSSZ8YJuxDlye2NVYVEwkSkiRStGWVG/uYJt07olj33HbS9z7JHJVyvvs0yD/qkM5ztmOqMufPhtJTXTI7wWmm87kBhSOU+baXrLlCfKNR3R/SzCcrXuqPxAPzuRH4yNxxlyXNE8nZ3VC2GC1Pv0o8m+oIvIMatm9ykFI7ndPsDyJNMcvW9Rb98cQuTcnkyKSz+CU9hUszV67m9ibAu7l49p+gTL5sm54+Xy5Uni0/ld5D/B03efPNXk//HAAAAAElFTkSuQmCC;" vertex="1" parent="1">
          <mxGeometry x="165" y="402" width="50" height="50" as="geometry" />
        </mxCell>
        <mxCell id="CX50pKxAuNAA75QaA4F4-16" value="" style="edgeStyle=elbowEdgeStyle;elbow=vertical;endArrow=classic;html=1;rounded=0;exitX=0.5;exitY=1;exitDx=0;exitDy=0;entryX=0.5;entryY=0;entryDx=0;entryDy=0;" edge="1" parent="1" source="CX50pKxAuNAA75QaA4F4-3" target="CX50pKxAuNAA75QaA4F4-14">
          <mxGeometry width="50" height="50" relative="1" as="geometry">
            <mxPoint x="255" y="420" as="sourcePoint" />
            <mxPoint x="305" y="370" as="targetPoint" />
            <Array as="points">
              <mxPoint x="110" y="370" />
            </Array>
          </mxGeometry>
        </mxCell>
        <mxCell id="CX50pKxAuNAA75QaA4F4-17" value="" style="edgeStyle=elbowEdgeStyle;elbow=vertical;endArrow=classic;html=1;rounded=0;exitX=0.5;exitY=1;exitDx=0;exitDy=0;entryX=0.5;entryY=0;entryDx=0;entryDy=0;" edge="1" parent="1" source="CX50pKxAuNAA75QaA4F4-3" target="CX50pKxAuNAA75QaA4F4-15">
          <mxGeometry width="50" height="50" relative="1" as="geometry">
            <mxPoint x="255" y="420" as="sourcePoint" />
            <mxPoint x="305" y="370" as="targetPoint" />
            <Array as="points">
              <mxPoint x="160" y="370" />
            </Array>
          </mxGeometry>
        </mxCell>
      </root>
    </mxGraphModel>
  </diagram>
</mxfile>
